<?xml version="1.0" encoding="iso-8859-1"?>
<!-- Generator: Adobe Illustrator 21.1.0, SVG Export Plug-In . SVG Version: 6.00 Build 0)  -->
<svg version="1.1" id="Layer_1" xmlns="http://www.w3.org/2000/svg" xmlns:xlink="http://www.w3.org/1999/xlink" x="0px" y="0px"
	 viewBox="0 0 24 24" enable-background="new 0 0 24 24" xml:space="preserve">
<g>
	<path fill="#303C42" d="M23.4985352,22.9985352c-1.9891968,0-3.840332-0.2077026-5.5372314-0.5987549
		C21.5635376,20.3265381,24,16.446106,24,12c0-6.6166992-5.3833008-12-12-12S0,5.3833008,0,12s5.3833008,12,12,12
		c1.6256714,0,3.1752319-0.3283081,4.5904541-0.916687c2.0690308,0.6052246,4.3909302,0.9152222,6.9080811,0.9152222
		c0.2763672,0,0.5-0.2236328,0.5-0.5S23.7749023,22.9985352,23.4985352,22.9985352z"/>
	<path fill="#455B64" d="M1,12C1,5.9345703,5.9345703,1,12,1s11,4.9345703,11,11s-4.9345703,11-11,11S1,18.0654297,1,12z"/>
	<path fill="#455B64" d="M1,12C1,5.9345703,5.9345703,1,12,1s11,4.9345703,11,11s-4.9345703,11-11,11S1,18.0654297,1,12z"/>
	<circle fill="#303C42" cx="12" cy="6" r="3"/>
	<path fill="#FFFFFF" d="M12,4c1.1030273,0,2,0.8969727,2,2c0,0.1160889-0.0152588,0.2283936-0.0343018,0.3391113
		c-1.2744141-0.4436035-2.6569824-0.4436035-3.9313965,0C10.0152588,6.2283936,10,6.1160889,10,6C10,4.8969727,10.8969727,4,12,4z"
		/>
	<path fill="#303C42" d="M9.1469727,11.0732422c0.2475586-0.762207,0.1835938-1.5751953-0.1801758-2.2890625
		C8.6030273,8.0698242,7.9829102,7.5400391,7.2211914,7.2924805H7.2207031
		C5.6503906,6.7827148,3.9521484,7.6459961,3.4404297,9.21875c-0.2475586,0.762207-0.1835938,1.5751953,0.1801758,2.2890625
		s0.9838867,1.2436523,1.7460938,1.4912109c0.3066406,0.0996094,0.6181641,0.1469727,0.9248047,0.1469727
		C7.5561523,13.1459961,8.7353516,12.3393555,9.1469727,11.0732422z"/>
	<path fill="#FFFFFF" d="M4.5117188,11.0537109C4.269043,10.578125,4.2265625,10.0361328,4.3916016,9.527832
		c0.2744141-0.8442383,1.0605469-1.3823242,1.9042969-1.3823242c0.2041016,0,0.4116211,0.0317383,0.6162109,0.0981445
		c0.1174927,0.038208,0.2285156,0.0887451,0.3349609,0.1462402C6.4537354,9.4315796,6,10.6851807,6,12
		c0,0.0404663,0.0064697,0.0791626,0.0073853,0.1193848c-0.1107178-0.0159912-0.2216797-0.0359497-0.331604-0.0715332
		C5.1674805,11.8828125,4.7539063,11.5297852,4.5117188,11.0537109z"/>
	<path fill="#303C42" d="M10.2368164,14.4272461c-1.3383789-0.9726563-3.2177734-0.675293-4.1904297,0.6635742
		c-0.4711914,0.6484375-0.6616211,1.440918-0.5361328,2.2324219s0.5512695,1.4868164,1.199707,1.9575195
		c0.53125,0.3862305,1.1479492,0.5722656,1.7592773,0.5722656c0.9287109,0,1.8447266-0.4287109,2.4306641-1.2353516
		c0.4711914-0.6484375,0.6616211-1.4414063,0.5366211-2.2329102C11.3110352,15.5932617,10.8847656,14.8979492,10.2368164,14.4272461
		z"/>
	<path fill="#303C42" d="M9.9210815,18.2205811c-0.3517456-0.3400269-0.6710205-0.6908569-0.9608765-1.0513916
		c0.4074097,0.2401733,0.843811,0.4316406,1.3016357,0.5701294c-0.0496826,0.0999146-0.1036377,0.1983643-0.1705322,0.2904663
		C10.0401611,18.1002808,9.9793091,18.1588135,9.9210815,18.2205811z"/>
	<path fill="#FFFFFF" d="M7.2978516,18.472168c-0.4321289-0.3144531-0.7163086-0.777832-0.7998047-1.3051758
		c-0.0838623-0.5271606,0.0427246-1.0547485,0.355957-1.4865723c0.5115356,1.097168,1.2467041,2.1279907,2.1956787,3.0806885
		C8.4712524,18.9350586,7.8226929,18.8538818,7.2978516,18.472168z"/>
	<path fill="#303C42" d="M20.5595703,9.2192383c-0.5112305-1.5737305-2.2050781-2.4365234-3.7807617-1.9267578
		c-0.7617188,0.2475586-1.3818359,0.7773438-1.7456055,1.4916992c-0.3637695,0.7138672-0.4277344,1.5268555-0.1801758,2.2890625
		c0.4116211,1.2661133,1.5908203,2.0727539,2.8554688,2.0727539c0.3066406,0,0.6181641-0.0473633,0.9248047-0.1469727
		c0,0,0,0,0.0004883,0c0.7617188-0.2475586,1.3818359-0.7773438,1.7456055-1.4912109S20.8071289,9.980957,20.5595703,9.2192383z"/>
	<path fill="#6D4D42" d="M12,8c-0.6273193,0-1.1810913-0.2960205-1.5480347-0.7492065
		c1.0070801-0.3300781,2.0889893-0.3300781,3.0960693,0C13.1810913,7.7039185,12.6273193,8,12,8z"/>
	<path fill="#6D4D42" d="M8.1958008,10.7636719c-0.1945801,0.5979614-0.649353,1.0335083-1.1954956,1.2416992
		C7.0003052,12.00354,7,12.0018311,7,12c0-1.0585327,0.3538818-2.0697021,0.9741211-2.9212646
		C8.0078125,9.131958,8.0467529,9.1809692,8.0756836,9.237793C8.3183594,9.7138672,8.3608398,10.2558594,8.1958008,10.7636719z"/>
	<path fill="#6D4D42" d="M8.4775391,14.8535156c0.4189453,0,0.8261719,0.1313477,1.1713867,0.3823242
		c0.4321289,0.3144531,0.7163086,0.777832,0.7998047,1.3051758c0.0114136,0.0720825,0.0092773,0.1436157,0.0128784,0.2154541
		c-1.0053101-0.3250732-1.8825684-0.9633179-2.5062256-1.8242798c0.0681152-0.0182495,0.1341553-0.0421143,0.2047729-0.0532837
		C8.2661133,14.8618164,8.3720703,14.8535156,8.4775391,14.8535156z"/>
	<path fill="#6D4D42" d="M15.8041992,10.7636719c-0.1650391-0.5078125-0.1225586-1.0498047,0.1201172-1.5258789
		c0.0289917-0.0568237,0.0679321-0.1057739,0.1016235-0.1589966C16.6461792,9.9303589,17,10.9415283,17,12
		c0,0.0020142-0.0003662,0.0040283-0.0003662,0.0060425C16.4529419,11.7979126,15.9987183,11.3618774,15.8041992,10.7636719z"/>
	<path fill="#FFFFFF" d="M19.4882813,11.0537109c-0.2421875,0.4760742-0.6557617,0.8291016-1.1635742,0.9941406
		c-0.1101685,0.0355835-0.2212524,0.055542-0.3320923,0.0715332C17.9935303,12.0791626,18,12.0404663,18,12
		c0-1.3148193-0.4537964-2.5683594-1.2470703-3.6101074c0.1063843-0.0574951,0.2174683-0.1080322,0.3349609-0.1462402
		C17.2924805,8.1772461,17.5,8.1455078,17.7041016,8.1455078c0.84375,0,1.6298828,0.5380859,1.9042969,1.3828125
		C19.7734375,10.0361328,19.730957,10.578125,19.4882813,11.0537109z"/>
	<circle fill="#303C42" cx="12" cy="12" r="1"/>
	<path opacity="0.1" fill="#010101" d="M21.6191406,6.6766968C21.8594971,7.5794678,22,8.522583,22,9.5
		c0,6.0654297-4.9345703,11-11,11c-4.1347046,0-7.7403564-2.2954712-9.6191406-5.6766968C2.6321411,19.5227051,6.9119873,23,12,23
		c6.0654297,0,11-4.9345703,11-11C23,10.0692749,22.4963989,8.2555542,21.6191406,6.6766968z"/>
	<path fill="#303C42" d="M13.7631836,14.4272461c-0.6479492,0.4707031-1.0742188,1.1660156-1.199707,1.9575195
		c-0.125,0.7915039,0.0654297,1.5844727,0.5366211,2.2329102c0.5859375,0.8066406,1.5019531,1.2353516,2.4306641,1.2353516
		c0.6113281,0,1.2280273-0.1860352,1.7592773-0.5722656c0.6484375-0.4707031,1.0742188-1.1660156,1.199707-1.9575195
		s-0.0649414-1.5844727-0.5361328-2.2324219C16.9819336,13.7524414,15.1010742,13.4541016,13.7631836,14.4272461z"/>
	<path fill="#FFFFFF" d="M17.5019531,17.1669922c-0.0834961,0.5273438-0.3676758,0.9907227-0.7998047,1.3051758
		c-0.8916016,0.6469727-2.1455078,0.4487305-2.793457-0.4423828c-0.0668945-0.0921021-0.1208496-0.1904907-0.1705322-0.2904663
		c1.2885132-0.3898926,2.4075928-1.2046509,3.1807861-2.3151855c0.0806885,0.0787964,0.1583862,0.161499,0.2260742,0.2545776
		C17.4589844,16.1108398,17.5859375,16.6391602,17.5019531,17.1669922z"/>
	<path fill="#6D4D42" d="M14.3510742,15.2358398c0.3452148-0.2509766,0.7524414-0.3823242,1.1713867-0.3823242
		c0.1049805,0,0.2114258,0.0083008,0.3173828,0.0253906c0.0706177,0.0111694,0.1366577,0.0350342,0.2047729,0.0532837
		c-0.6235962,0.8609009-1.5008545,1.4992065-2.5061646,1.8242798c0.0036011-0.0718384,0.0014038-0.1433716,0.0128174-0.2154541
		C13.6347656,16.0136719,13.9189453,15.550293,14.3510742,15.2358398z"/>
	<g opacity="0.1">
		<path fill="#D32E2E" d="M12,8c-0.6273193,0-1.1810913-0.2960205-1.5480347-0.7492065
			c1.0070801-0.3300781,2.0889893-0.3300781,3.0960693,0C13.1810913,7.7039185,12.6273193,8,12,8z"/>
		<path fill="#D32E2E" d="M8.1958008,10.7636719c-0.1945801,0.5979614-0.649353,1.0335083-1.1954956,1.2416992
			C7.0003052,12.00354,7,12.0018311,7,12c0-1.0585327,0.3538818-2.0697021,0.9741211-2.9212646
			C8.0078125,9.131958,8.0467529,9.1809692,8.0756836,9.237793C8.3183594,9.7138672,8.3608398,10.2558594,8.1958008,10.7636719z"/>
		<path fill="#D32E2E" d="M8.4775391,14.8535156c0.4189453,0,0.8261719,0.1313477,1.1713867,0.3823242
			c0.4321289,0.3144531,0.7163086,0.777832,0.7998047,1.3051758c0.0114136,0.0720825,0.0092773,0.1436157,0.0128784,0.2154541
			c-1.0053101-0.3250732-1.8825684-0.9633179-2.5062256-1.8242798c0.0681152-0.0182495,0.1341553-0.0421143,0.2047729-0.0532837
			C8.2661133,14.8618164,8.3720703,14.8535156,8.4775391,14.8535156z"/>
		<path fill="#D32E2E" d="M14.3510742,15.2358398c0.3452148-0.2509766,0.7524414-0.3823242,1.1713867-0.3823242
			c0.1049805,0,0.2114258,0.0083008,0.3173828,0.0253906c0.0706177,0.0111694,0.1366577,0.0350342,0.2047729,0.0532837
			c-0.6235962,0.8609009-1.5008545,1.4992065-2.5061646,1.8242798c0.0036011-0.0718384,0.0014038-0.1433716,0.0128174-0.2154541
			C13.6347656,16.0136719,13.9189453,15.550293,14.3510742,15.2358398z"/>
		<path fill="#D32E2E" d="M15.8041992,10.7636719c-0.1650391-0.5078125-0.1225586-1.0498047,0.1201172-1.5258789
			c0.0289917-0.0568237,0.0679321-0.1057739,0.1016235-0.1589966C16.6461792,9.9303589,17,10.9415283,17,12
			c0,0.0020142-0.0003662,0.0040283-0.0003662,0.0060425C16.4529419,11.7979126,15.9987183,11.3618774,15.8041992,10.7636719z"/>
	</g>
	<linearGradient id="SVGID_1_" gradientUnits="userSpaceOnUse" x1="1.1249185" y1="6.9288664" x2="26.3023491" y2="18.6692944">
		<stop  offset="0" style="stop-color:#FFFFFF;stop-opacity:0.2"/>
		<stop  offset="1" style="stop-color:#FFFFFF;stop-opacity:0"/>
	</linearGradient>
	<path fill="url(#SVGID_1_)" d="M23.4985352,22.9985352c-1.9891968,0-3.840332-0.2077026-5.5372314-0.5987549
		C21.5635376,20.3265381,24,16.446106,24,12c0-6.6166992-5.3833008-12-12-12S0,5.3833008,0,12s5.3833008,12,12,12
		c1.6256714,0,3.1752319-0.3283081,4.5904541-0.916687c2.0690308,0.6052246,4.3909302,0.9152222,6.9080811,0.9152222
		c0.2763672,0,0.5-0.2236328,0.5-0.5S23.7749023,22.9985352,23.4985352,22.9985352z"/>
</g>
<g>
</g>
<g>
</g>
<g>
</g>
<g>
</g>
<g>
</g>
<g>
</g>
<g>
</g>
<g>
</g>
<g>
</g>
<g>
</g>
<g>
</g>
<g>
</g>
<g>
</g>
<g>
</g>
<g>
</g>
</svg>
